<svg width="181" height="41" viewBox="0 0 181 41" fill="none" xmlns="http://www.w3.org/2000/svg">
<g clip-path="url(#clip0_414_6848)">
<path d="M38.3384 32.7503L18.0997 0.5L5.5889 22.3137C5.41032 22.6251 5.51831 23.0223 5.82996 23.2004C6.15031 23.3834 6.25389 23.7963 6.05786 24.1089L0.826446 32.4509C0.563968 32.8695 0.733047 33.4234 1.18451 33.6241C1.54586 33.7847 1.97036 33.6616 2.18971 33.3326L4.1804 30.3465C4.32723 30.1263 4.62117 30.0602 4.84816 30.1964C5.07987 30.3354 5.15762 30.6343 5.02302 30.8686L1.23802 37.4573C1.00434 37.8641 1.12607 38.3824 1.5164 38.6426C1.94334 38.9273 2.52183 38.7934 2.78038 38.3502L7.87168 29.6222C7.98139 29.4342 8.2123 29.3548 8.41447 29.4357C8.66291 29.535 8.76562 29.8315 8.63191 30.0633L6.63824 33.519C6.51111 33.7393 6.56394 34.0195 6.7626 34.1784C7.01197 34.3779 7.38092 34.3047 7.53519 34.0251L9.87259 29.7885L18.0997 15.6379L24.6814 26.4977H16.7834L12.9989 32.9148L38.3384 32.7503Z" fill="#D4FF00"/>
<path d="M4.70342 24.0919C5.00624 24.8332 4.41123 25.5612 3.94898 26.0033C3.4139 26.6205 2.91433 25.7348 3.12627 25.1807C3.3382 24.6265 4.32489 23.1654 4.70342 24.0919Z" fill="#D4FF00"/>
<path d="M1.27104 39.4035C1.5022 39.9445 1.22753 39.9393 0.850207 40.272C0.411789 40.7347 0.0252096 40.0903 0.203673 39.6791C0.382136 39.2678 0.982098 38.7272 1.27104 39.4035Z" fill="#D4FF00"/>
<path d="M53.3383 33.5748H62.5775C71.2347 33.5748 77.6003 30.3504 77.6003 21.1024C77.6003 11.5354 71.4165 8.84252 62.5775 8.84252H53.3383V33.5748ZM60.104 13.7323H62.723C67.6699 13.7323 70.6163 16.2835 70.6163 21.2087C70.6163 26.1339 67.7791 28.685 62.723 28.685H60.104V13.7323Z" fill="#D4FF00"/>
<path d="M90.6006 33.9271C96.1033 33.9271 99.6426 31.3602 100.314 27.3337H93.8041C93.3907 28.4284 92.2153 29.045 90.7556 29.045C88.6372 29.045 87.3971 27.6861 87.3971 25.8238V25.5218H100.314V23.9112C100.314 17.7583 96.4392 13.996 90.4456 13.996C84.297 13.996 80.3702 17.9722 80.3702 23.9616C80.3702 30.2152 84.2453 33.9271 90.6006 33.9271ZM87.3971 21.6967C87.4359 20.0232 88.8568 18.8781 90.6006 18.8781C92.3703 18.8781 93.7136 20.0357 93.7524 21.6967H87.3971Z" fill="#D4FF00"/>
<path d="M104.216 33.5748H110.764V7H104.216V33.5748Z" fill="#D4FF00"/>
<path d="M113.928 19.5787H117.674V27.0905C117.674 31.4842 119.093 34 124.949 34C126.586 34 127.823 33.7874 129.06 33.6457L128.842 29.5C128.187 29.6063 127.496 29.748 126.841 29.748C124.768 29.748 124.222 28.6142 124.222 26.3819V19.5787H128.805V15.1142H124.222V9.01969L117.784 10.9685V15.1142H113.928V19.5787Z" fill="#D4FF00"/>
<path d="M137.064 33.8768C139.647 33.8768 141.598 33.0212 142.799 30.8569H142.954V33.5748H149.619V20.3377C149.619 16.7642 146.145 13.996 140.474 13.996C134.545 13.996 131.626 17.0159 131.38 20.5391H137.942C138.11 19.3437 139.014 18.7775 140.371 18.7775C141.611 18.7775 142.489 19.3311 142.489 20.3377V20.3881C142.489 21.5079 141.223 21.8602 137.89 22.0993C133.796 22.3887 130.605 23.9993 130.605 28.2397C130.605 32.09 133.266 33.8768 137.064 33.8768ZM139.389 29.498C138.175 29.498 137.322 28.9192 137.322 27.8371C137.322 26.843 138.045 26.0755 139.699 25.8238C140.836 25.6477 141.791 25.4212 142.541 25.1192V26.7298C142.541 28.4914 141.003 29.498 139.389 29.498Z" fill="#D4FF00"/>
<path d="M153.4 33.5748H160.166V23.6181H169.951V18.9409H160.166V13.5197H170.387V8.84252H153.4V33.5748Z" fill="#D4FF00"/>
<path d="M174.231 33.5748H180.778V15.1142H174.231V33.5748ZM180.778 7.4252H174.231V12.1024H180.778V7.4252Z" fill="#D4FF00"/>
</g>
<defs>
<clipPath id="clip0_414_6848">
<rect width="180.778" height="40" fill="white" transform="translate(0 0.5)"/>
</clipPath>
</defs>
</svg>
